{
    "asset" : {
        "generator" : "Khronos glTF Blender I/O v1.8.19",
        "version" : "2.0"
    },
    "scene" : 0,
    "scenes" : [
        {
            "name" : "Scene",
            "nodes" : [
                4
            ]
        }
    ],
    "nodes" : [
        {
            "mesh" : 0,
            "name" : "Object_4"
        },
        {
            "children" : [
                0
            ],
            "name" : "Paris 2024_0.001"
        },
        {
            "children" : [
                1
            ],
            "name" : "GLTF_SceneRootNode.002",
            "rotation" : [
                0.7071068286895752,
                0,
                0,
                0.7071068286895752
            ]
        },
        {
            "children" : [
                2
            ],
            "name" : "root.002"
        },
        {
            "children" : [
                3
            ],
            "name" : "Sketchfab_model.002",
            "rotation" : [
                -0.5,
                -0.5,
                -0.5,
                0.5
            ],
            "translation" : [
                -0.2875351905822754,
                3.4201714992523193,
                -0.20957691967487335
            ]
        }
    ],
    "materials" : [
        {
            "doubleSided" : true,
            "name" : "JO2024-texture.001",
            "pbrMetallicRoughness" : {
                "baseColorTexture" : {
                    "index" : 0
                },
                "roughnessFactor" : 0.4000000059604645
            }
        }
    ],
    "meshes" : [
        {
            "name" : "Object_0.001",
            "primitives" : [
                {
                    "attributes" : {
                        "POSITION" : 0,
                        "NORMAL" : 1,
                        "TEXCOORD_0" : 2
                    },
                    "indices" : 3,
                    "material" : 0
                }
            ]
        }
    ],
    "textures" : [
        {
            "sampler" : 0,
            "source" : 0
        }
    ],
    "images" : [
        {
            "bufferView" : 4,
            "mimeType" : "image/png",
            "name" : "Frame 62"
        }
    ],
    "accessors" : [
        {
            "bufferView" : 0,
            "componentType" : 5126,
            "count" : 10050,
            "max" : [
                0.20000162720680237,
                3.799582004547119,
                4.390293598175049
            ],
            "min" : [
                -0.19999903440475464,
                -3.3862996101379395,
                -4.448498249053955
            ],
            "type" : "VEC3"
        },
        {
            "bufferView" : 1,
            "componentType" : 5126,
            "count" : 10050,
            "type" : "VEC3"
        },
        {
            "bufferView" : 2,
            "componentType" : 5126,
            "count" : 10050,
            "type" : "VEC2"
        },
        {
            "bufferView" : 3,
            "componentType" : 5123,
            "count" : 33684,
            "type" : "SCALAR"
        }
    ],
    "bufferViews" : [
        {
            "buffer" : 0,
            "byteLength" : 120600,
            "byteOffset" : 0
        },
        {
            "buffer" : 0,
            "byteLength" : 120600,
            "byteOffset" : 120600
        },
        {
            "buffer" : 0,
            "byteLength" : 80400,
            "byteOffset" : 241200
        },
        {
            "buffer" : 0,
            "byteLength" : 67368,
            "byteOffset" : 321600
        },
        {
            "buffer" : 0,
            "byteLength" : 6412,
            "byteOffset" : 388968
        }
    ],
    "samplers" : [
        {
            "magFilter" : 9729,
            "minFilter" : 9987
        }
    ],
    "buffers" : [
        {
            "byteLength" : 395380,
            "uri" : "data:application/octet-stream;base64,"
        }
    ]
}
