{
    "asset" : {
        "generator" : "Khronos glTF Blender I/O v1.8.19",
        "version" : "2.0"
    },
    "scene" : 0,
    "scenes" : [
        {
            "name" : "Scene",
            "nodes" : [
                0,
                1,
                2
            ]
        }
    ],
    "nodes" : [
        {
            "mesh" : 0,
            "name" : "Cube",
            "rotation" : [
                -0.5734261274337769,
                -0.20434744656085968,
                0.30870142579078674,
                0.7308406233787537
            ],
            "scale" : [
                0.6724559664726257,
                0.6724560260772705,
                0.6724561452865601
            ],
            "translation" : [
                -0.5420713424682617,
                1.6477380990982056,
                0.26226362586021423
            ]
        },
        {
            "mesh" : 1,
            "name" : "Vert.001",
            "rotation" : [
                0.01769695244729519,
                -0.382384717464447,
                -0.12691883742809296,
                0.9150739908218384
            ],
            "scale" : [
                2.4675400257110596,
                2.4675405025482178,
                2.4675402641296387
            ],
            "translation" : [
                4.756953716278076,
                -2.4134652614593506,
                3.5861165523529053
            ]
        },
        {
            "mesh" : 2,
            "name" : "Vert.002",
            "rotation" : [
                0.01769695244729519,
                -0.382384717464447,
                -0.12691883742809296,
                0.9150739908218384
            ],
            "scale" : [
                2.4675400257110596,
                2.4675405025482178,
                2.4675402641296387
            ],
            "translation" : [
                4.756953716278076,
                -2.4134652614593506,
                3.5861165523529053
            ]
        }
    ],
    "materials" : [
        {
            "doubleSided" : true,
            "name" : "White.004",
            "pbrMetallicRoughness" : {
                "baseColorFactor" : [
                    0.800000011920929,
                    0.800000011920929,
                    0.800000011920929,
                    1
                ],
                "metallicFactor" : 0.20000000298023224,
                "roughnessFactor" : 0.699999988079071
            }
        },
        {
            "doubleSided" : true,
            "name" : "Blue.002",
            "pbrMetallicRoughness" : {
                "baseColorFactor" : [
                    0.0343397855758667,
                    0.21586057543754578,
                    0.7991030216217041,
                    1
                ],
                "metallicFactor" : 0.125,
                "roughnessFactor" : 0.44999998807907104
            }
        },
        {
            "doubleSided" : true,
            "name" : "Red.003",
            "pbrMetallicRoughness" : {
                "baseColorFactor" : [
                    0.6138461232185364,
                    0.02209732122719288,
                    0.03383880853652954,
                    1
                ],
                "metallicFactor" : 0.20000000298023224,
                "roughnessFactor" : 0.44999998807907104
            }
        },
        {
            "doubleSided" : true,
            "name" : "Hand",
            "pbrMetallicRoughness" : {
                "baseColorFactor" : [
                    0.7891079783439636,
                    0.31165799498558044,
                    0.1576240062713623,
                    1
                ],
                "metallicFactor" : 0,
                "roughnessFactor" : 0.699999988079071
            }
        },
        {
            "doubleSided" : true,
            "name" : "Black.004",
            "pbrMetallicRoughness" : {
                "baseColorFactor" : [
                    0.004241569899022579,
                    0.004241569899022579,
                    0.004241569899022579,
                    1
                ],
                "metallicFactor" : 0,
                "roughnessFactor" : 0.699999988079071
            }
        }
    ],
    "meshes" : [
        {
            "name" : "Cube.022",
            "primitives" : [
                {
                    "attributes" : {
                        "POSITION" : 0,
                        "NORMAL" : 1,
                        "TEXCOORD_0" : 2
                    },
                    "indices" : 3,
                    "material" : 0
                },
                {
                    "attributes" : {
                        "POSITION" : 4,
                        "NORMAL" : 5,
                        "TEXCOORD_0" : 6
                    },
                    "indices" : 7,
                    "material" : 1
                },
                {
                    "attributes" : {
                        "POSITION" : 8,
                        "NORMAL" : 9,
                        "TEXCOORD_0" : 10
                    },
                    "indices" : 11,
                    "material" : 2
                }
            ]
        },
        {
            "name" : "Vert.003",
            "primitives" : [
                {
                    "attributes" : {
                        "POSITION" : 12,
                        "NORMAL" : 13
                    },
                    "indices" : 14,
                    "material" : 3
                }
            ]
        },
        {
            "name" : "Vert.004",
            "primitives" : [
                {
                    "attributes" : {
                        "POSITION" : 15,
                        "NORMAL" : 16
                    },
                    "indices" : 17,
                    "material" : 4
                }
            ]
        }
    ],
    "accessors" : [
        {
            "bufferView" : 0,
            "componentType" : 5126,
            "count" : 15288,
            "max" : [
                1.2254289388656616,
                1.2254291772842407,
                1.234589695930481
            ],
            "min" : [
                -1.234589695930481,
                -1.234589695930481,
                -1.2254291772842407
            ],
            "type" : "VEC3"
        },
        {
            "bufferView" : 1,
            "componentType" : 5126,
            "count" : 15288,
            "type" : "VEC3"
        },
        {
            "bufferView" : 2,
            "componentType" : 5126,
            "count" : 15288,
            "type" : "VEC2"
        },
        {
            "bufferView" : 3,
            "componentType" : 5123,
            "count" : 55296,
            "type" : "SCALAR"
        },
        {
            "bufferView" : 4,
            "componentType" : 5126,
            "count" : 4994,
            "max" : [
                1.293046236038208,
                1.293046236038208,
                1.293045997619629
            ],
            "min" : [
                -1.293046236038208,
                -1.293045997619629,
                -1.293046236038208
            ],
            "type" : "VEC3"
        },
        {
            "bufferView" : 5,
            "componentType" : 5126,
            "count" : 4994,
            "type" : "VEC3"
        },
        {
            "bufferView" : 6,
            "componentType" : 5126,
            "count" : 4994,
            "type" : "VEC2"
        },
        {
            "bufferView" : 7,
            "componentType" : 5123,
            "count" : 19296,
            "type" : "SCALAR"
        },
        {
            "bufferView" : 8,
            "componentType" : 5126,
            "count" : 4788,
            "max" : [
                1.2254059314727783,
                0.9074702262878418,
                1.2254060506820679
            ],
            "min" : [
                -1.2254059314727783,
                -0.9074699878692627,
                -1.2254060506820679
            ],
            "type" : "VEC3"
        },
        {
            "bufferView" : 9,
            "componentType" : 5126,
            "count" : 4788,
            "type" : "VEC3"
        },
        {
            "bufferView" : 10,
            "componentType" : 5126,
            "count" : 4788,
            "type" : "VEC2"
        },
        {
            "bufferView" : 11,
            "componentType" : 5123,
            "count" : 17856,
            "type" : "SCALAR"
        },
        {
            "bufferView" : 12,
            "componentType" : 5126,
            "count" : 5973,
            "max" : [
                -2.2248899936676025,
                1.6513592004776,
                0.20328614115715027
            ],
            "min" : [
                -2.921410083770752,
                0.3432159721851349,
                -0.21008041501045227
            ],
            "type" : "VEC3"
        },
        {
            "bufferView" : 13,
            "componentType" : 5126,
            "count" : 5973,
            "type" : "VEC3"
        },
        {
            "bufferView" : 14,
            "componentType" : 5123,
            "count" : 35136,
            "type" : "SCALAR"
        },
        {
            "bufferView" : 15,
            "componentType" : 5126,
            "count" : 2752,
            "max" : [
                -2.3450043201446533,
                0.814802348613739,
                0.22141145169734955
            ],
            "min" : [
                -2.794623374938965,
                0.6010478138923645,
                -0.22820739448070526
            ],
            "type" : "VEC3"
        },
        {
            "bufferView" : 16,
            "componentType" : 5126,
            "count" : 2752,
            "type" : "VEC3"
        },
        {
            "bufferView" : 17,
            "componentType" : 5123,
            "count" : 15936,
            "type" : "SCALAR"
        }
    ],
    "bufferViews" : [
        {
            "buffer" : 0,
            "byteLength" : 183456,
            "byteOffset" : 0
        },
        {
            "buffer" : 0,
            "byteLength" : 183456,
            "byteOffset" : 183456
        },
        {
            "buffer" : 0,
            "byteLength" : 122304,
            "byteOffset" : 366912
        },
        {
            "buffer" : 0,
            "byteLength" : 110592,
            "byteOffset" : 489216
        },
        {
            "buffer" : 0,
            "byteLength" : 59928,
            "byteOffset" : 599808
        },
        {
            "buffer" : 0,
            "byteLength" : 59928,
            "byteOffset" : 659736
        },
        {
            "buffer" : 0,
            "byteLength" : 39952,
            "byteOffset" : 719664
        },
        {
            "buffer" : 0,
            "byteLength" : 38592,
            "byteOffset" : 759616
        },
        {
            "buffer" : 0,
            "byteLength" : 57456,
            "byteOffset" : 798208
        },
        {
            "buffer" : 0,
            "byteLength" : 57456,
            "byteOffset" : 855664
        },
        {
            "buffer" : 0,
            "byteLength" : 38304,
            "byteOffset" : 913120
        },
        {
            "buffer" : 0,
            "byteLength" : 35712,
            "byteOffset" : 951424
        },
        {
            "buffer" : 0,
            "byteLength" : 71676,
            "byteOffset" : 987136
        },
        {
            "buffer" : 0,
            "byteLength" : 71676,
            "byteOffset" : 1058812
        },
        {
            "buffer" : 0,
            "byteLength" : 70272,
            "byteOffset" : 1130488
        },
        {
            "buffer" : 0,
            "byteLength" : 33024,
            "byteOffset" : 1200760
        },
        {
            "buffer" : 0,
            "byteLength" : 33024,
            "byteOffset" : 1233784
        },
        {
            "buffer" : 0,
            "byteLength" : 31872,
            "byteOffset" : 1266808
        }
    ],
    "buffers" : [
        {
            "byteLength" : 1298680,
            "uri" : "data:application/octet-stream;base64,"
        }
    ]
}
